<?xml version="1.0" encoding="utf-8"?>
<!-- Generator: Adobe Illustrator 27.5.0, SVG Export Plug-In . SVG Version: 6.00 Build 0)  -->
<svg version="1.1" xmlns="http://www.w3.org/2000/svg" xmlns:xlink="http://www.w3.org/1999/xlink" x="0px" y="0px"
	 viewBox="0 0 500 500" style="enable-background:new 0 0 500 500;" xml:space="preserve">
<g id="Background_Simple">
	<g>
		<path style="fill:#C6FF00;" d="M275.763,58.248C187.964,42.369,53.781,106.291,87.388,203.917
			c7.093,20.604,17.353,39.872,25.278,60.136c12.677,32.414-0.755,64.766,24.639,93.694c21.79,24.823,55.873,40.668,91.364,39.626
			c41.838-1.228,88.703-18.507,116.246-49.243c29.281-32.676,41.12-74.475,62.272-111.258
			C430.187,196.878,414.854,83.403,275.763,58.248z"/>
		<path style="opacity:0.75;fill:#FFFFFF;" d="M275.763,58.248C187.964,42.369,53.781,106.291,87.388,203.917
			c7.093,20.604,17.353,39.872,25.278,60.136c12.677,32.414-0.755,64.766,24.639,93.694c21.79,24.823,55.873,40.668,91.364,39.626
			c41.838-1.228,88.703-18.507,116.246-49.243c29.281-32.676,41.12-74.475,62.272-111.258
			C430.187,196.878,414.854,83.403,275.763,58.248z"/>
	</g>
</g>
<g id="Ground">
	<g>
		
			<ellipse style="fill:none;stroke:#263238;stroke-width:0.25;stroke-miterlimit:10;" cx="247" cy="434.29" rx="145.038" ry="18.106"/>
		
			<ellipse style="fill:none;stroke:#263238;stroke-width:0.5;stroke-miterlimit:10;" cx="247" cy="432.5" rx="118.628" ry="15.609"/>
		<ellipse style="fill:none;stroke:#263238;stroke-miterlimit:10;" cx="247" cy="432.5" rx="91.645" ry="12.059"/>
		<g>
			<ellipse style="fill:#C6FF00;" cx="248.021" cy="432.102" rx="75.237" ry="7.898"/>
			<ellipse style="opacity:0.5;fill:#FFFFFF;" cx="248.021" cy="432.102" rx="75.237" ry="7.898"/>
		</g>
	</g>
</g>
<g id="Lines">
	<g>
		
			<circle style="fill:none;stroke:#263238;stroke-linecap:round;stroke-linejoin:round;stroke-miterlimit:10;stroke-dasharray:2,3;" cx="247.019" cy="220.18" r="135.534"/>
		<g>
			<g>
				<g>
					<path style="fill:none;stroke:#FFFFFF;stroke-width:0.5;stroke-miterlimit:10;" d="M209.155,356.312
						c-24.817,2.598-46.792-3.114-61.801-18.123c-36.596-36.596-17.92-114.607,41.715-174.242
						c59.635-59.635,137.646-78.312,174.242-41.715c16.011,16.011,21.442,39.949,17.493,66.807"/>
					<path style="fill:none;stroke:#FFFFFF;stroke-width:0.5;stroke-miterlimit:10;" d="M384.722,235.872
						c6.227,25.642,3.217,49.957-10.645,68.482c-32.553,43.503-112.627,38.599-178.849-10.954
						c-66.223-49.553-93.517-124.991-60.964-168.494c14.818-19.803,39.484-29.576,68.207-29.671"/>
					
						<ellipse transform="matrix(0.972 -0.2348 0.2348 0.972 -41.3109 63.8657)" style="fill:none;stroke:#FFFFFF;stroke-width:0.5;stroke-miterlimit:10;" cx="247.524" cy="205.402" rx="153.552" ry="62.085"/>
					
						<ellipse transform="matrix(0.2348 -0.972 0.972 0.2348 -25.0728 404.5659)" style="fill:none;stroke:#FFFFFF;stroke-width:0.5;stroke-miterlimit:10;" cx="244.431" cy="218.208" rx="157.58" ry="62.085"/>
					<path style="fill:#FFFFFF;stroke:#FFFFFF;stroke-width:0.5;stroke-miterlimit:10;" d="M264.852,330.276
						c0.976,0.976,2.558,0.976,3.534,0c0.976-0.976,0.976-2.558,0-3.534c-0.976-0.976-2.558-0.976-3.534,0
						C263.876,327.717,263.876,329.299,264.852,330.276z"/>
					<path style="fill:#FFFFFF;stroke:#FFFFFF;stroke-width:0.5;stroke-miterlimit:10;" d="M172.175,276.869
						c0.976,0.976,2.558,0.976,3.534,0c0.976-0.976,0.976-2.558,0-3.534c-0.976-0.976-2.558-0.976-3.534,0
						C171.199,274.31,171.199,275.893,172.175,276.869z"/>
					<path style="fill:#FFFFFF;stroke:#FFFFFF;stroke-width:0.5;stroke-miterlimit:10;" d="M138.992,235.832
						c0.976,0.976,2.558,0.976,3.534,0s0.976-2.558,0-3.534c-0.976-0.976-2.558-0.976-3.534,0
						C138.016,233.273,138.016,234.856,138.992,235.832z"/>
					<path style="fill:#FFFFFF;stroke:#FFFFFF;stroke-width:0.5;stroke-miterlimit:10;" d="M122.106,196.169
						c0.976,0.976,2.558,0.976,3.534,0c0.976-0.976,0.976-2.558,0-3.534c-0.976-0.976-2.558-0.976-3.534,0
						C121.13,193.611,121.13,195.193,122.106,196.169z"/>
					<path style="fill:#FFFFFF;stroke:#FFFFFF;stroke-width:0.5;stroke-miterlimit:10;" d="M128.389,270.389
						c0.976,0.976,2.558,0.976,3.534,0c0.976-0.976,0.976-2.558,0-3.534c-0.976-0.976-2.558-0.976-3.534,0
						C127.413,267.831,127.413,269.413,128.389,270.389z"/>
					<path style="fill:#FFFFFF;stroke:#FFFFFF;stroke-width:0.5;stroke-miterlimit:10;" d="M197.7,156.31
						c0.976,0.976,2.558,0.976,3.534,0c0.976-0.976,0.976-2.558,0-3.534c-0.976-0.976-2.558-0.976-3.534,0
						C196.725,153.752,196.725,155.334,197.7,156.31z"/>
					<path style="fill:#FFFFFF;stroke:#FFFFFF;stroke-width:0.5;stroke-miterlimit:10;" d="M308.637,104.671
						c0.976,0.976,2.558,0.976,3.534,0c0.976-0.976,0.976-2.558,0-3.534c-0.976-0.976-2.558-0.976-3.534,0
						C307.661,102.112,307.661,103.695,308.637,104.671z"/>
					<path style="fill:#FFFFFF;stroke:#FFFFFF;stroke-width:0.5;stroke-miterlimit:10;" d="M313.35,136.872
						c0.976,0.976,2.558,0.976,3.534,0c0.976-0.976,0.976-2.558,0-3.534c-0.976-0.976-2.558-0.976-3.534,0
						C312.374,134.313,312.374,135.896,313.35,136.872z"/>
					<path style="fill:#FFFFFF;stroke:#FFFFFF;stroke-width:0.5;stroke-miterlimit:10;" d="M297.249,256.252
						c0.976,0.976,2.558,0.976,3.534,0c0.976-0.976,0.976-2.558,0-3.534c-0.976-0.976-2.558-0.976-3.534,0
						C296.273,253.694,296.273,255.276,297.249,256.252z"/>
					<path style="fill:#FFFFFF;stroke:#FFFFFF;stroke-width:0.5;stroke-miterlimit:10;" d="M186.705,357.764
						c0.976,0.976,2.558,0.976,3.534,0c0.976-0.976,0.976-2.558,0-3.534c-0.976-0.976-2.558-0.976-3.534,0
						C185.729,355.206,185.729,356.788,186.705,357.764z"/>
					<path style="fill:#FFFFFF;stroke:#FFFFFF;stroke-width:0.5;stroke-miterlimit:10;" d="M376.771,150.42
						c0.976,0.976,2.558,0.976,3.534,0c0.976-0.976,0.976-2.558,0-3.534c-0.976-0.976-2.558-0.976-3.534,0
						C375.795,147.862,375.795,149.444,376.771,150.42z"/>
				</g>
				
					<line style="fill:none;stroke:#FFFFFF;stroke-width:0.5;stroke-miterlimit:10;" x1="213.255" y1="85.087" x2="214.099" y2="90.991"/>
			</g>
			<g>
				<g>
					<path style="fill:none;stroke:#FFFFFF;stroke-width:0.5;stroke-miterlimit:10;" d="M283.162,355.647
						c24.817,2.598,46.792-3.114,61.801-18.123c36.596-36.596,17.92-114.607-41.715-174.242
						c-59.635-59.635-137.646-78.312-174.242-41.715c-16.011,16.011-21.442,39.949-17.493,66.807"/>
					<path style="fill:none;stroke:#FFFFFF;stroke-width:0.5;stroke-miterlimit:10;" d="M107.594,235.207
						c-6.227,25.642-3.217,49.957,10.645,68.482c32.553,43.504,112.627,38.599,178.849-10.954
						c66.223-49.554,93.518-124.991,60.965-168.494c-14.818-19.803-39.484-29.576-68.207-29.672"/>
					
						<ellipse transform="matrix(0.2348 -0.972 0.972 0.2348 -11.7015 394.6092)" style="fill:none;stroke:#FFFFFF;stroke-width:0.5;stroke-miterlimit:10;" cx="244.792" cy="204.737" rx="62.085" ry="153.552"/>
					
						<ellipse transform="matrix(0.972 -0.2348 0.2348 0.972 -44.1516 64.29)" style="fill:none;stroke:#FFFFFF;stroke-width:0.5;stroke-miterlimit:10;" cx="247.886" cy="217.543" rx="62.085" ry="157.58"/>
					<path style="fill:#FFFFFF;stroke:#FFFFFF;stroke-width:0.5;stroke-miterlimit:10;" d="M227.465,329.61
						c-0.976,0.976-2.558,0.976-3.534,0c-0.976-0.976-0.976-2.558,0-3.534c0.976-0.976,2.558-0.976,3.534,0
						C228.441,327.052,228.441,328.634,227.465,329.61z"/>
					<path style="fill:#FFFFFF;stroke:#FFFFFF;stroke-width:0.5;stroke-miterlimit:10;" d="M320.142,276.203
						c-0.976,0.976-2.558,0.976-3.534,0c-0.976-0.976-0.976-2.558,0-3.534c0.976-0.976,2.558-0.976,3.534,0
						C321.117,273.645,321.117,275.227,320.142,276.203z"/>
					<path style="fill:#FFFFFF;stroke:#FFFFFF;stroke-width:0.5;stroke-miterlimit:10;" d="M353.325,235.166
						c-0.976,0.976-2.558,0.976-3.534,0c-0.976-0.976-0.976-2.558,0-3.534c0.976-0.976,2.558-0.976,3.534,0
						C354.301,232.608,354.3,234.19,353.325,235.166z"/>
					<path style="fill:#FFFFFF;stroke:#FFFFFF;stroke-width:0.5;stroke-miterlimit:10;" d="M370.211,195.504
						c-0.976,0.976-2.558,0.976-3.534,0c-0.976-0.976-0.976-2.558,0-3.534c0.976-0.976,2.558-0.976,3.534,0
						C371.187,192.946,371.187,194.528,370.211,195.504z"/>
					<path style="fill:#FFFFFF;stroke:#FFFFFF;stroke-width:0.5;stroke-miterlimit:10;" d="M363.927,269.724
						c-0.976,0.976-2.558,0.976-3.534,0c-0.976-0.976-0.976-2.558,0-3.534c0.976-0.976,2.558-0.976,3.534,0
						C364.903,267.165,364.903,268.748,363.927,269.724z"/>
					<path style="fill:#FFFFFF;stroke:#FFFFFF;stroke-width:0.5;stroke-miterlimit:10;" d="M294.616,155.645
						c-0.976,0.976-2.558,0.976-3.534,0c-0.976-0.976-0.976-2.558,0-3.534c0.976-0.976,2.558-0.976,3.534,0
						C295.592,153.087,295.592,154.669,294.616,155.645z"/>
					<path style="fill:#FFFFFF;stroke:#FFFFFF;stroke-width:0.5;stroke-miterlimit:10;" d="M183.679,104.005
						c-0.976,0.976-2.558,0.976-3.534,0c-0.976-0.976-0.976-2.558,0-3.534c0.976-0.976,2.558-0.976,3.534,0
						C184.655,101.447,184.655,103.029,183.679,104.005z"/>
					<path style="fill:#FFFFFF;stroke:#FFFFFF;stroke-width:0.5;stroke-miterlimit:10;" d="M178.967,136.207
						c-0.976,0.976-2.558,0.976-3.534,0c-0.976-0.976-0.976-2.558,0-3.534c0.976-0.976,2.558-0.976,3.534,0
						C179.943,133.648,179.943,135.231,178.967,136.207z"/>
					<path style="fill:#FFFFFF;stroke:#FFFFFF;stroke-width:0.5;stroke-miterlimit:10;" d="M195.067,255.587
						c-0.976,0.976-2.558,0.976-3.534,0c-0.976-0.976-0.976-2.558,0-3.534c0.976-0.976,2.558-0.976,3.534,0
						C196.043,253.028,196.043,254.611,195.067,255.587z"/>
					<path style="fill:#FFFFFF;stroke:#FFFFFF;stroke-width:0.5;stroke-miterlimit:10;" d="M305.612,357.099
						c-0.976,0.976-2.558,0.976-3.534,0c-0.976-0.976-0.976-2.558,0-3.534c0.976-0.976,2.558-0.976,3.534,0
						C306.588,354.541,306.588,356.123,305.612,357.099z"/>
					<path style="fill:#FFFFFF;stroke:#FFFFFF;stroke-width:0.5;stroke-miterlimit:10;" d="M115.546,149.755
						c-0.976,0.976-2.558,0.976-3.534,0c-0.976-0.976-0.976-2.558,0-3.534c0.976-0.976,2.558-0.976,3.534,0
						C116.522,147.196,116.522,148.779,115.546,149.755z"/>
				</g>
			</g>
		</g>
	</g>
</g>
<g id="Icons">
	<g>
		<g>
			<path style="fill:#263238;stroke:#263238;stroke-linecap:round;stroke-linejoin:round;stroke-miterlimit:10;" d="
				M151.892,329.506L151.892,329.506c-9.989,0-18.087-8.098-18.087-18.087l0,0c0-9.989,8.098-18.087,18.087-18.087l0,0
				c9.989,0,18.087,8.098,18.087,18.087l0,0C169.979,321.408,161.881,329.506,151.892,329.506z"/>
			<g id="XMLID_7_">
				<path id="XMLID_12_" style="fill:#C6FF00;" d="M151.892,303.289c2.648,0,2.962,0.01,4.007,0.058
					c0.967,0.044,1.492,0.206,1.842,0.342c0.463,0.18,0.793,0.395,1.14,0.742c0.347,0.347,0.562,0.677,0.742,1.14
					c0.136,0.35,0.297,0.875,0.342,1.842c0.048,1.046,0.058,1.359,0.058,4.007c0,2.648-0.01,2.962-0.058,4.007
					c-0.044,0.967-0.206,1.492-0.342,1.842c-0.18,0.463-0.395,0.793-0.742,1.14c-0.347,0.347-0.677,0.562-1.14,0.742
					c-0.35,0.136-0.875,0.297-1.842,0.342c-1.046,0.048-1.359,0.058-4.007,0.058c-2.648,0-2.962-0.01-4.007-0.058
					c-0.967-0.044-1.492-0.206-1.841-0.342c-0.463-0.18-0.793-0.395-1.14-0.742c-0.347-0.347-0.562-0.677-0.742-1.14
					c-0.136-0.349-0.297-0.874-0.342-1.842c-0.048-1.046-0.058-1.359-0.058-4.007c0-2.648,0.01-2.962,0.058-4.007
					c0.044-0.967,0.206-1.492,0.342-1.842c0.18-0.463,0.395-0.793,0.742-1.14c0.347-0.347,0.677-0.562,1.14-0.742
					c0.349-0.136,0.875-0.298,1.841-0.342C148.93,303.299,149.244,303.289,151.892,303.289 M151.892,301.502
					c-2.693,0-3.031,0.012-4.089,0.06c-1.056,0.048-1.776,0.216-2.407,0.461c-0.652,0.253-1.205,0.592-1.757,1.144
					c-0.551,0.551-0.89,1.104-1.144,1.757c-0.245,0.631-0.413,1.352-0.461,2.407c-0.048,1.058-0.06,1.396-0.06,4.089
					c0,2.694,0.011,3.031,0.06,4.089c0.048,1.056,0.216,1.776,0.461,2.407c0.253,0.652,0.592,1.205,1.144,1.757
					c0.551,0.551,1.104,0.89,1.757,1.144c0.631,0.245,1.352,0.413,2.407,0.461c1.058,0.048,1.396,0.06,4.089,0.06
					s3.031-0.011,4.089-0.06c1.056-0.048,1.777-0.216,2.407-0.461c0.652-0.254,1.205-0.593,1.757-1.144
					c0.551-0.552,0.89-1.105,1.144-1.757c0.245-0.631,0.413-1.352,0.461-2.407c0.048-1.058,0.059-1.395,0.059-4.089
					c0-2.693-0.011-3.031-0.059-4.089c-0.048-1.056-0.216-1.776-0.461-2.407c-0.253-0.652-0.593-1.205-1.144-1.757
					c-0.551-0.551-1.105-0.891-1.757-1.144c-0.631-0.245-1.352-0.413-2.407-0.461C154.923,301.513,154.585,301.502,151.892,301.502"
					/>
				<path id="XMLID_9_" style="fill:#C6FF00;" d="M151.892,306.327c-2.812,0-5.093,2.28-5.093,5.092c0,2.813,2.28,5.093,5.093,5.093
					c2.812,0,5.093-2.28,5.093-5.093C156.984,308.607,154.704,306.327,151.892,306.327 M151.892,314.725
					c-1.826,0-3.306-1.48-3.306-3.306c0-1.826,1.48-3.306,3.306-3.306c1.826,0,3.306,1.48,3.306,3.306
					C155.197,313.245,153.718,314.725,151.892,314.725"/>
				<path id="XMLID_8_" style="fill:#C6FF00;" d="M158.376,306.125c0,0.657-0.533,1.19-1.19,1.19c-0.658,0-1.19-0.533-1.19-1.19
					s0.533-1.19,1.19-1.19C157.843,304.935,158.376,305.468,158.376,306.125"/>
			</g>
		</g>
	</g>
	<g>
		<g>
			<path style="fill:#263238;" d="M310.027,117.76L310.027,117.76c-9.989,0-18.087-8.098-18.087-18.087l0,0
				c0-9.989,8.098-18.087,18.087-18.087l0,0c9.989,0,18.087,8.098,18.087,18.087l0,0C328.115,109.662,320.017,117.76,310.027,117.76
				z"/>
			<path id="XMLID_1_" style="fill:#C6FF00;" d="M307.162,110.606h4.403V99.58h3.072l0.328-3.692h-3.399c0,0,0-1.378,0-2.103
				c0-0.87,0.175-1.214,1.016-1.214c0.677,0,2.383,0,2.383,0V88.74c0,0-2.512,0-3.049,0c-3.276,0-4.753,1.443-4.753,4.205
				c0,2.406,0,2.943,0,2.943h-2.29v3.738h2.29V110.606z"/>
		</g>
	</g>
	<g>
		<g>
			<path style="fill:#263238;stroke:#263238;stroke-linecap:round;stroke-linejoin:round;stroke-miterlimit:10;" d="
				M134.586,152.242L134.586,152.242c-9.989,0-18.087-8.098-18.087-18.087l0,0c0-9.989,8.098-18.087,18.087-18.087l0,0
				c9.989,0,18.087,8.098,18.087,18.087l0,0C152.673,144.144,144.575,152.242,134.586,152.242z"/>
			<path id="XMLID_3_" style="fill:#C6FF00;" d="M124.949,140.21c1.75,1.122,3.828,1.777,6.061,1.777
				c7.342,0,11.489-6.201,11.24-11.763c0.772-0.557,1.443-1.253,1.973-2.047c-0.71,0.315-1.472,0.527-2.271,0.623
				c0.816-0.488,1.443-1.264,1.738-2.188c-0.764,0.453-1.61,0.783-2.51,0.96c-0.722-0.769-1.749-1.248-2.887-1.248
				c-2.552,0-4.428,2.382-3.851,4.855c-3.286-0.165-6.2-1.739-8.15-4.132c-1.036,1.778-0.537,4.103,1.224,5.28
				c-0.649-0.02-1.259-0.199-1.792-0.495c-0.043,1.832,1.27,3.546,3.172,3.928c-0.557,0.152-1.166,0.186-1.785,0.067
				c0.502,1.572,1.963,2.714,3.693,2.746C129.141,139.876,127.047,140.458,124.949,140.21z"/>
		</g>
	</g>
	<g>
		<circle style="fill:#263238;" cx="345.062" cy="310.116" r="18.278"/>
		<g>
			<g>
				<g>
					<path style="fill:#FFFFFF;" d="M356.783,308.758c-0.097,0,0.257-0.025,0.534-0.025c1.193,0,2.16-0.912,2.16-2.037
						c0-1.125-0.967-2.037-2.16-2.037c-0.007,0-0.013,0.001-0.02,0.001l0.003-0.017h-7.712c0,0,0.477-2.783,0.477-3.737
						c0-0.954,0.477-2.385-0.795-4.214c-1.272-1.829-4.214-1.113-4.214-1.113l0.448,3.777c0.071,0.595-0.043,1.197-0.324,1.726
						l-3.463,6.503l-1.59,1.352l-0.477,8.031c1.034,2.465,4.294,3.26,4.294,3.26h10.233c0.064,0.005,0.128,0.009,0.194,0.009
						c1.193,0,2.16-0.912,2.16-2.037c0-0.715-0.391-1.343-0.982-1.706c0.131,0.023,0.265,0.037,0.402,0.037
						c1.193,0,2.16-0.912,2.16-2.037c0-0.705-0.38-1.326-0.957-1.692c1.017-0.165,1.792-0.999,1.792-2.005
						C358.943,309.67,357.976,308.758,356.783,308.758z"/>
					<path style="fill:#263238;" d="M354.369,320.554c-0.07,0-0.138-0.004-0.207-0.009h-10.22c-0.025,0-0.051-0.003-0.075-0.009
						c-0.139-0.034-3.428-0.863-4.511-3.446c-0.019-0.045-0.027-0.093-0.024-0.142l0.477-8.031c0.005-0.087,0.046-0.167,0.112-0.223
						l1.544-1.312l3.435-6.449c0.253-0.474,0.352-1.006,0.289-1.539l-0.448-3.777c-0.019-0.16,0.084-0.309,0.241-0.346
						c0.129-0.031,3.17-0.744,4.55,1.241c1.089,1.565,0.973,2.862,0.889,3.809c-0.019,0.213-0.037,0.414-0.037,0.586
						c0,0.767-0.289,2.621-0.42,3.419h7.337c0.036,0,0.072,0.006,0.105,0.018c1.325,0.044,2.389,1.083,2.389,2.354
						c0,0.992-0.648,1.843-1.564,2.189c0.624,0.428,1.03,1.125,1.03,1.91c0,0.944-0.583,1.77-1.451,2.143
						c0.393,0.425,0.616,0.974,0.616,1.554c0,1.161-0.889,2.129-2.054,2.321c0.305,0.396,0.474,0.879,0.474,1.386
						C356.846,319.497,355.735,320.554,354.369,320.554z M343.983,319.909h10.192c0.009,0,0.017,0,0.026,0.001
						c0.055,0.004,0.111,0.008,0.167,0.008c1.016,0,1.842-0.771,1.842-1.719c0-0.579-0.311-1.115-0.831-1.435
						c-0.13-0.08-0.185-0.241-0.13-0.384c0.054-0.143,0.202-0.226,0.353-0.2c0.121,0.021,0.234,0.032,0.347,0.032
						c1.016,0,1.841-0.771,1.841-1.719c0-0.57-0.302-1.102-0.809-1.423c-0.112-0.071-0.168-0.203-0.142-0.333
						c0.027-0.129,0.13-0.229,0.261-0.25c0.884-0.143,1.525-0.854,1.525-1.691c0-0.948-0.826-1.719-1.841-1.719
						c-0.006,0-0.025-0.001-0.031-0.001c-0.168-0.01-0.303-0.15-0.303-0.318c0-0.343,0.29-0.343,0.868-0.343
						c1.016,0,1.842-0.771,1.842-1.719c0-0.948-0.826-1.719-1.842-1.719c0.003,0-0.01,0.001-0.02,0.001
						c-0.036,0-0.071-0.006-0.104-0.017h-7.605c-0.094,0-0.183-0.041-0.243-0.113c-0.061-0.072-0.086-0.166-0.07-0.259
						c0.005-0.028,0.472-2.767,0.472-3.683c0-0.201,0.019-0.416,0.04-0.643c0.08-0.897,0.179-2.014-0.777-3.389
						c-0.917-1.318-2.878-1.151-3.602-1.037l0.413,3.482c0.079,0.663-0.046,1.324-0.359,1.913l-3.463,6.503
						c-0.019,0.035-0.044,0.067-0.075,0.093l-1.487,1.264l-0.465,7.82C340.905,319.019,343.643,319.817,343.983,319.909z"/>
				</g>
				<g>
					<path style="fill:#C6FF00;stroke:#263238;stroke-linecap:round;stroke-linejoin:round;stroke-miterlimit:10;" d="
						M338.942,321.499h-4.126c-1.181,0-2.138-0.957-2.138-2.138v-11.228c0-1.181,0.957-2.138,2.138-2.138h4.126
						c1.181,0,2.138,0.957,2.138,2.138v11.228C341.08,320.542,340.123,321.499,338.942,321.499z"/>
				</g>
			</g>
		</g>
	</g>
	<path style="fill:#263238;" d="M370.121,129.197c-7.848,0-14.21,6.362-14.21,14.21c0,7.848,14.21,24.92,14.21,24.92
		s14.21-17.072,14.21-24.92C384.332,135.559,377.97,129.197,370.121,129.197z M370.121,151.336c-4.152,0-7.517-3.366-7.517-7.517
		c0-4.152,3.366-7.517,7.517-7.517s7.517,3.366,7.517,7.517C377.638,147.971,374.273,151.336,370.121,151.336z"/>
	<g>
		<polygon style="fill:#C6FF00;stroke:#263238;stroke-linecap:round;stroke-linejoin:round;stroke-miterlimit:10;" points="
			403.292,225.24 403.362,225.188 403.223,225.188 380.807,208.336 358.391,225.188 358.252,225.188 358.323,225.239 
			358.252,225.293 358.398,225.293 381.007,241.555 403.219,225.293 403.362,225.293 		"/>
		<g>
			
				<rect x="365.317" y="210.022" style="fill:#FFFFFF;stroke:#C6FF00;stroke-linecap:round;stroke-linejoin:round;stroke-miterlimit:10;" width="30.258" height="37.556"/>
			<g>
				<path style="fill:#263238;" d="M386.898,220.244c0,4.351-1.978,6.856-4.022,6.856c-1.055,0-1.67-0.527-1.736-1.494
					c-0.439,0.967-1.187,1.516-2.264,1.494c-1.648-0.022-2.22-1.406-2.022-3.362l0.242-2.197c0.198-2,1.099-3.253,2.725-3.208
					c0.989,0,1.626,0.527,1.89,1.45l0.154-1.363h1.494l-0.659,6.307c-0.066,0.505,0.088,0.945,0.637,0.945
					c1.692,0,2.263-3.23,2.241-5.384c0-3.055-1.428-5.032-4.725-5.032c-4.395,0-6.439,3.648-6.439,8.57
					c0,3.802,1.736,6.087,5.56,6.087c1.538,0,2.945-0.308,4.329-1.384l-0.132,1.516c-1.341,0.923-2.747,1.187-4.285,1.187
					c-4.835,0-6.944-2.967-6.944-7.494c0-5.23,2.505-9.823,7.955-9.823C385.316,213.915,386.898,216.618,386.898,220.244z
					 M378.569,221.695l-0.198,1.978c-0.132,1.143,0.22,1.956,1.253,1.978c1.011,0.022,1.56-0.769,1.692-1.956l0.22-2.11
					c0.11-1.033-0.308-1.758-1.275-1.758C379.25,219.805,378.701,220.508,378.569,221.695z"/>
			</g>
		</g>
		<polygon style="fill:#C6FF00;stroke:#263238;stroke-linecap:round;stroke-linejoin:round;stroke-miterlimit:10;" points="
			358.252,225.188 358.252,251.336 403.362,251.336 403.362,225.188 380.807,238.262 		"/>
		<polyline style="fill:none;stroke:#263238;stroke-linecap:round;stroke-linejoin:round;stroke-miterlimit:10;" points="
			358.252,251.336 380.807,238.262 403.362,251.336 		"/>
	</g>
	<g>
		
			<rect x="190.253" y="80.275" style="fill:#263238;stroke:#263238;stroke-linecap:round;stroke-linejoin:round;stroke-miterlimit:10;" width="47.891" height="33.214"/>
		
			<ellipse transform="matrix(0.973 -0.2308 0.2308 0.973 -16.579 52.0616)" style="fill:#C6FF00;" cx="214.198" cy="96.882" rx="10.978" ry="10.978"/>
		<polygon style="fill:#263238;stroke:#263238;stroke-linecap:round;stroke-linejoin:round;stroke-miterlimit:10;" points="
			222.156,97.08 208.74,89.334 208.74,104.826 		"/>
		
			<line style="fill:none;stroke:#FFFFFF;stroke-linecap:round;stroke-linejoin:round;stroke-miterlimit:10;" x1="191.308" y1="110.155" x2="236.836" y2="110.155"/>
	</g>
	<g>
		<g>
			<path style="fill:#FFFFFF;stroke:#C6FF00;stroke-linecap:round;stroke-linejoin:round;stroke-miterlimit:10;" d="
				M139.375,229.598c0.127-0.684,0.202-1.386,0.202-2.107c0-6.324-5.127-11.451-11.451-11.451c-2.356,0-4.544,0.713-6.365,1.933
				c-2.312-5.614-7.834-9.567-14.281-9.567c-8.528,0-15.441,6.913-15.441,15.441c0,0.19,0.007,0.378,0.014,0.566
				c-4.213,1.201-7.301,5.071-7.301,9.67c0,5.085,3.776,9.278,8.675,9.956v0.107h45.456c4.024,0,7.287-3.262,7.287-7.287
				C146.169,233.002,143.169,229.852,139.375,229.598z"/>
		</g>
		<polygon style="fill:#263238;" points="126.405,239.491 113.81,223.636 101.215,239.491 106.142,239.491 106.142,253.756 
			121.479,253.756 121.479,239.491 		"/>
	</g>
</g>
<g id="Character">
	<g>
		<g>
			<g>
				<g>
					<g>
						<path style="fill:#FFFFFF;stroke:#263238;stroke-linecap:round;stroke-linejoin:round;stroke-miterlimit:10;" d="
							M219.608,420.564c0,0-2.426,1.862-4.468,3.904c-2.042,2.042-7.76,4.288-11.231,6.739c-3.471,2.451-1.43,4.901,1.634,5.922
							c3.063,1.021,11.844,0.204,15.111-0.408c3.267-0.613,4.901-4.492,7.555-5.105c2.655-0.613,7.555,1.634,7.76-2.246
							c0.204-3.88,0.408-7.76,0.408-7.76L219.608,420.564z"/>
						<path style="fill:#FFFFFF;stroke:#263238;stroke-linecap:round;stroke-linejoin:round;stroke-miterlimit:10;" d="
							M235.97,429.369c0.041-0.788,0.083-1.574,0.122-2.329c-2.219,1.599-5.019,1.529-8.699,2.329
							c-4.697,1.021-6.33,5.513-15.724,5.922c-6.075,0.264-8.554-0.836-9.553-1.648c-0.164,1.511,1.403,2.811,3.427,3.486
							c3.063,1.021,11.844,0.204,15.111-0.408c3.267-0.613,4.901-4.492,7.555-5.105C230.864,431.003,235.765,433.249,235.97,429.369
							z"/>
						<path style="fill:#FFFFFF;stroke:#263238;stroke-linecap:round;stroke-linejoin:round;stroke-miterlimit:10;" d="
							M221.471,419.771c0,0-4.697,5.718-6.33,7.556c-1.634,1.838,3.063,1.225,5.105-0.613c2.042-1.838,5.309-6.126,5.309-6.126
							L221.471,419.771z"/>
					</g>
					<g>
						<path style="fill:#FFFFFF;stroke:#263238;stroke-linecap:round;stroke-linejoin:round;stroke-miterlimit:10;" d="
							M285.841,420.564c0,0,2.426,1.862,4.468,3.904c2.042,2.042,7.76,4.288,11.231,6.739c3.471,2.451,1.429,4.901-1.634,5.922
							c-3.063,1.021-11.844,0.204-15.111-0.408c-3.267-0.613-4.901-4.492-7.555-5.105c-2.655-0.613-7.556,1.634-7.76-2.246
							c-0.204-3.88-0.408-7.76-0.408-7.76L285.841,420.564z"/>
						<path style="fill:#FFFFFF;stroke:#263238;stroke-linecap:round;stroke-linejoin:round;stroke-miterlimit:10;" d="
							M269.48,429.369c-0.042-0.788-0.083-1.574-0.123-2.329c2.22,1.599,5.019,1.529,8.699,2.329
							c4.697,1.021,6.33,5.513,15.724,5.922c6.075,0.264,8.553-0.836,9.553-1.648c0.164,1.511-1.403,2.811-3.427,3.486
							c-3.063,1.021-11.844,0.204-15.111-0.408c-3.267-0.613-4.901-4.492-7.555-5.105
							C274.585,431.003,269.684,433.249,269.48,429.369z"/>
						<path style="fill:#FFFFFF;stroke:#263238;stroke-linecap:round;stroke-linejoin:round;stroke-miterlimit:10;" d="
							M283.979,419.771c0,0,4.697,5.718,6.33,7.556c1.634,1.838-3.063,1.225-5.105-0.613c-2.042-1.838-5.309-6.126-5.309-6.126
							L283.979,419.771z"/>
					</g>
					<path style="fill:#263238;stroke:#263238;stroke-linecap:round;stroke-linejoin:round;stroke-miterlimit:10;" d="
						M222.157,274.665c0,0-2.549,22.955-2.549,26.664s0,50.497,0.571,58.77c0.571,8.273-2.282,11.681-0.571,22.236
						c1.712,10.556,2.282,29.1,2.282,29.1s-2.282,1.426-2.282,2.853c0,1.426,0,6.276,0,6.276l17.178,1.862
						c0,0,1.081-14.701,1.366-19.265c0.285-4.565,4.565-33.363,5.706-41.636c1.141-8.273,5.646-55.386,5.646-55.386
						s7.478,52.248,8.048,53.959c0.571,1.712,1.427,3.122,3.994,12.536c2.568,9.415,4.85,41.938,4.85,41.938l2.45,9.079
						l17.561-3.267c0,0-2.609-14.656-2.609-16.938c0-2.282-0.571-1.426-1.141-7.132c-0.571-5.706-1.426-15.389-0.856-31.936
						c0.57-16.547-7.132-60.482-7.132-60.482l-2.282-29.385C272.387,274.511,244.106,281.095,222.157,274.665z"/>
					<path style="fill:none;stroke:#FFFFFF;stroke-linecap:round;stroke-linejoin:round;stroke-miterlimit:10;" d="M256.452,298.948
						l-4.62,8.581c0,0,9.901-5.94,16.171-6.931"/>
					<path style="fill:none;stroke:#FFFFFF;stroke-linecap:round;stroke-linejoin:round;stroke-miterlimit:10;" d="M241.165,304.549
						c0,0-4.294-6.936-11.89-8.917"/>
				</g>
				<path style="fill:#C6FF00;stroke:#263238;stroke-linecap:round;stroke-linejoin:round;stroke-miterlimit:10;" d="
					M221.309,277.076c0,0-2.983,7.458-1.492,9.695s15.289,7.831,29.087,7.831s27.222-4.848,27.222-8.204
					c0-3.356-2.61-11.56-2.61-11.56S251.141,285.28,221.309,277.076z"/>
				<g>
					<path style="fill:#C6FF00;stroke:#263238;stroke-linecap:round;stroke-linejoin:round;stroke-miterlimit:10;" d="
						M225.865,206.08c0,0-9.963,0-12.28,1.854c-2.317,1.854-2.549,9.5-2.781,10.89c-0.232,1.39-5.51,26.268-5.51,26.268
						l11.128,15.307l4.114-19.563l0.401,38.048c0,0,0.758,3.736,3.306,5.126c2.549,1.39,20.39,2.78,28.731,2.78
						c8.341,0,20.361-4.182,21.288-6.731c0.927-2.549-1.825-31.114-1.825-31.114l3.956,8.799l9.481-16.246
						c0,0-6.485-21.516-7.412-26.15c-0.927-4.634-3.476-6.024-8.573-8.11c-5.098-2.085-20.158-1.39-26.183-1.39
						C237.681,205.849,225.865,206.08,225.865,206.08z"/>
					<path style="fill:none;stroke:#263238;stroke-linecap:round;stroke-linejoin:round;stroke-miterlimit:10;" d="M228.394,280.805
						c0,0,5.967-0.373,7.458-7.085c1.492-6.712,2.237-10.441,2.237-10.441l2.61-0.373c0,0,0,4.848-0.746,11.187
						c-0.746,6.339-2.983,8.204-4.102,8.204"/>
					<path style="fill:none;stroke:#263238;stroke-linecap:round;stroke-linejoin:round;stroke-miterlimit:10;" d="M269.787,277.449
						c2.983-7.458-3.729-16.035-3.729-16.035l-2.61-0.373c0,0,7.458,9.695,3.729,17.154"/>
					
						<line style="fill:none;stroke:#263238;stroke-linecap:round;stroke-linejoin:round;stroke-miterlimit:10;" x1="220.535" y1="240.836" x2="218.913" y2="229.019"/>
					
						<line style="fill:none;stroke:#263238;stroke-linecap:round;stroke-linejoin:round;stroke-miterlimit:10;" x1="272.437" y1="248.945" x2="271.51" y2="227.397"/>
					<path style="fill:none;stroke:#263238;stroke-linecap:round;stroke-linejoin:round;stroke-miterlimit:10;" d="M274.347,250.243
						c0,0-2.888-5.364,6.602-9.903"/>
					<path style="fill:none;stroke:#263238;stroke-linecap:round;stroke-linejoin:round;stroke-miterlimit:10;" d="M275.998,239.102
						c0,0,4.951-2.063,8.252-2.063"/>
					<path style="fill:none;stroke:#263238;stroke-linecap:round;stroke-linejoin:round;stroke-miterlimit:10;" d="M209.154,240.34
						c0,0,7.84,2.476,9.49,8.665"/>
					<path style="fill:none;stroke:#263238;stroke-linecap:round;stroke-linejoin:round;stroke-miterlimit:10;" d="M218.232,243.229
						c0,0-2.888-4.951-7.427-5.777"/>
				</g>
				<g>
					<path style="fill:#C6FF00;stroke:#263238;stroke-linecap:round;stroke-linejoin:round;stroke-miterlimit:10;" d="
						M240.299,195.67c0,0-5.256,0-6.813,1.168c-1.557,1.168-2.336,4.283-3.115,4.867s-4.283,0.389-5.061,2.531
						c-0.779,2.141-0.779,1.557,5.256,7.202c6.034,5.645,21.023,12.069,22.58,12.069c1.557,0,11.68-11.68,14.6-13.042
						c2.92-1.363,3.309-1.363,3.504-2.141c0.195-0.779-0.195-4.672-2.725-6.229c-2.531-1.557-5.84-1.947-5.84-1.947
						s-0.389-2.336-3.504-4.088c-3.115-1.752-7.397-2.141-10.512-2.141C245.555,193.918,240.299,195.67,240.299,195.67z"/>
					<path style="fill:none;stroke:#263238;stroke-linecap:round;stroke-linejoin:round;stroke-miterlimit:10;" d="M262.685,200.147
						c0,0-0.303,4.296-1.954,8.422"/>
					<path style="fill:none;stroke:#263238;stroke-linecap:round;stroke-linejoin:round;stroke-miterlimit:10;" d="M231.435,204.443
						c0,0,0.825,2.476,5.364,4.951"/>
					<g>
						
							<line style="fill:none;stroke:#FFFFFF;stroke-linecap:round;stroke-linejoin:round;stroke-miterlimit:10;" x1="249.498" y1="220.678" x2="249.962" y2="246.165"/>
						
							<line style="fill:none;stroke:#FFFFFF;stroke-linecap:round;stroke-linejoin:round;stroke-miterlimit:10;" x1="255.059" y1="220.909" x2="257.376" y2="244.543"/>
					</g>
				</g>
				<g>
					<path style="fill:#263238;stroke:#263238;stroke-linecap:round;stroke-linejoin:round;stroke-miterlimit:10;" d="
						M206.173,226.435l-9.261,3.185c-0.798,0.275-1.668-0.15-1.943-0.948l-6.837-19.878c-0.275-0.798,0.15-1.668,0.948-1.943
						l9.261-3.185c0.798-0.275,1.668,0.15,1.943,0.948l6.837,19.878C207.396,225.291,206.971,226.16,206.173,226.435z"/>
					<g>
						<path style="fill:#FFFFFF;stroke:#263238;stroke-linecap:round;stroke-linejoin:round;stroke-miterlimit:10;" d="
							M197.695,237.204c-0.812-0.812-8.251-18.532-8.928-20.155c-0.676-1.623,7.575-7.305,7.575-7.305s2.164-1.353,2.164-0.135
							c0,1.217-4.193,4.87-4.734,5.816c-0.541,0.947,1.217,3.923,1.217,3.923s5.275-2.841,5.681-2.841
							c0.406,0,6.222,5.005,6.763,5.546c0.541,0.541,2.029,2.164,1.623,2.976c-0.406,0.812-1.353,0.406-2.029,0.27
							c-0.676-0.135-6.628,2.029-6.628,2.029s2.3,3.247,2.029,5.14c-0.271,1.894-0.812,3.517-0.812,3.517
							s12.844,15.773,14.467,16.72c1.623,0.947,2.538,4.413,1.456,8.066c-1.082,3.652-3.62,3.432-7.002,3.297
							C207.157,263.934,197.695,237.204,197.695,237.204z"/>
						<path style="fill:none;stroke:#263238;stroke-linecap:round;stroke-linejoin:round;stroke-miterlimit:10;" d="
							M202.835,219.078c0,0-2.3,0-2.841,0.406c-0.541,0.406-4.599,3.111-4.599,3.111"/>
						<path style="fill:none;stroke:#263238;stroke-linecap:round;stroke-linejoin:round;stroke-miterlimit:10;" d="
							M196.883,224.895c0,0,3.788-2.705,4.599-2.976c0.812-0.27,5.14-0.27,5.14-0.27"/>
						<path style="fill:none;stroke:#263238;stroke-linecap:round;stroke-linejoin:round;stroke-miterlimit:10;" d="M207.84,222.73
							c0,0-5.952,1.217-6.763,1.488c-0.812,0.27-2.976,2.299-2.976,2.299"/>
						
							<line style="fill:none;stroke:#263238;stroke-linecap:round;stroke-linejoin:round;stroke-miterlimit:10;" x1="194.989" y1="219.348" x2="193.231" y2="220.431"/>
					</g>
				</g>
				<g>
					<path style="fill:#FFFFFF;stroke:#263238;stroke-linecap:round;stroke-linejoin:round;stroke-miterlimit:10;" d="
						M285.146,242.625l22.28-17.705c0,0-0.995-6.366-0.796-7.361c0.199-0.995,1.989-6.764,6.366-8.952
						c4.377-2.188,5.769-2.586,5.769-0.995c0,1.591-1.591,1.989-1.989,2.586c-0.398,0.597-2.586,2.785-2.586,2.785
						s4.178-1.79,5.57-1.79c1.392,0,3.78-0.597,3.78,0.796c0,1.393-1.592,1.393-2.586,1.393c-0.995,0-3.78,2.785-3.78,2.785
						s5.769-1.393,6.963-1.393s2.188,1.393,1.194,1.989c-0.995,0.597-2.188,0.796-2.785,0.995c-0.597,0.199-2.586,1.392-2.586,1.392
						s5.968-0.597,5.57,0.995c-0.398,1.591-3.183,1.194-3.78,1.194s-2.984,1.194-3.382,1.989c-0.398,0.796-1.194,4.178-2.785,4.973
						c-1.591,0.796-4.576,1.989-4.576,1.989s-10.146,12.334-14.323,17.108c-4.178,4.774-11.737,10.345-15.915,11.339
						c-4.178,0.995-4.973-0.199-5.172-1.989C275.398,254.959,275.585,248.592,285.146,242.625z"/>
					<path style="fill:none;stroke:#263238;stroke-linecap:round;stroke-linejoin:round;stroke-miterlimit:10;" d="M307.625,214.973
						c0,0,4.774-2.188,5.769-2.188c0.995,0,2.586,0.796,1.392,2.188c-1.194,1.393-4.376,3.382-4.376,3.382s5.769,2.387,2.984,6.764"
						/>
				</g>
				<g>
					<path style="fill:#FFFFFF;stroke:#263238;stroke-linecap:round;stroke-linejoin:round;stroke-miterlimit:10;" d="
						M251.418,161.493c0,0-6.239,1.084-9.121,4.61c-2.882,3.526-12.358,24.811-12.332,26.717c0.026,1.906,9.638,0.939,9.638,0.939
						s0.975,10.659,4.372,18.462c0.924,2.123,4.238,6.316,7.79,4.75c3.552-1.566,5.086-25.884,5.086-25.884s3.375,4.796,5.935,3.513
						c2.927-1.467,2.396-5.054,0.301-5.258c-2.095-0.204,6.703-8.019,4.531-13.941C265.445,169.478,254.116,159.852,251.418,161.493
						z"/>
					<g>
						<path style="fill:#263238;stroke:#263238;stroke-linecap:round;stroke-linejoin:round;stroke-miterlimit:10;" d="
							M249.766,154.564c0,0-11.733-1.143-12.912,4.453s4.651,8.702,11.458,8.307s12.842,0.617,13.577,1.746
							c0.736,1.129-8.477,2.347-6.525,4.017c1.952,1.671,4.068,1.665,4.068,1.665s-3.015,0.552-3.009,2.668
							c0.005,2.116,0.927,11.549,2.393,11.692s4.271,0.23,4.271,0.23s4.164-1.498,7.634-4.544
							c3.469-3.046,5.001-10.088,1.429-14.666c-3.573-4.578-6.321-8.927-9.138-12.585c-2.816-3.658-5.402-7.506-11.606-8.956
							C245.202,147.14,241.605,149.327,249.766,154.564z"/>
						<path style="fill:none;stroke:#FFFFFF;stroke-linecap:round;stroke-linejoin:round;stroke-miterlimit:10;" d="
							M272.125,178.578c0.14,2.168-0.236,3.731-0.236,3.731"/>
						<path style="fill:none;stroke:#FFFFFF;stroke-linecap:round;stroke-linejoin:round;stroke-miterlimit:10;" d="
							M252.054,161.466c0,0-12.98-0.001-8.362,2.928c4.619,2.93,12.502-0.949,21.507,3.671c3.804,1.952,5.587,4.796,6.379,7.43"/>
						<path style="fill:none;stroke:#FFFFFF;stroke-linecap:round;stroke-linejoin:round;stroke-miterlimit:10;" d="
							M258.909,171.983c0,0,8.363,5.148,8.925,11.507"/>
					</g>
					<path style="fill:none;stroke:#263238;stroke-linecap:round;stroke-linejoin:round;stroke-miterlimit:10;" d="M239.603,193.759
						c0,0,10.118,0.351,13.066-1.688"/>
					<g>
						<path style="fill:none;stroke:#263238;stroke-linecap:round;stroke-linejoin:round;stroke-miterlimit:10;" d="
							M237.276,185.072c0,0,7.129,2.809,9.653-1.386"/>
						
							<line style="fill:none;stroke:#263238;stroke-linecap:round;stroke-linejoin:round;stroke-miterlimit:10;" x1="245.754" y1="182.726" x2="248.774" y2="184.289"/>
						<path style="fill:#FFFFFF;stroke:#263238;stroke-linecap:round;stroke-linejoin:round;stroke-miterlimit:10;" d="
							M240.52,175.659c0,0-6.577,0.205-6.679,1.253c-0.102,1.048,3.803,4.389,3.803,4.389"/>
					</g>
					<path style="fill:#263238;" d="M241.543,173.728c-0.391,0.877-1.063,1.429-1.502,1.234c-0.438-0.195-0.477-1.065-0.086-1.941
						c0.391-0.877,1.063-1.429,1.502-1.234C241.896,171.982,241.934,172.851,241.543,173.728z"/>
					<path style="fill:#263238;" d="M246.778,177.058c-0.391,0.877-1.063,1.429-1.502,1.234c-0.438-0.195-0.477-1.065-0.086-1.942
						c0.391-0.877,1.063-1.429,1.502-1.234C247.131,175.313,247.169,176.182,246.778,177.058z"/>
					<path style="fill:#263238;stroke:#263238;stroke-linecap:round;stroke-linejoin:round;stroke-miterlimit:10;" d="
						M247.662,171.137c0,0,3.143,0.597,2.434,4.894L247.662,171.137z"/>
					<path style="fill:#263238;stroke:#263238;stroke-linecap:round;stroke-linejoin:round;stroke-miterlimit:10;" d="
						M244.975,168.837c0,0-1.505-2.475-4.121,0.472L244.975,168.837z"/>
				</g>
			</g>
		</g>
		<g>
			<path style="fill:#263238;" d="M192.046,201.637l-0.158-7.115c1.956,0,3.557-1.601,3.557-3.557v-19.367
				c0-1.956-1.601-3.557-3.557-3.557h-44.664c-1.956,0-3.557,1.601-3.557,3.557v19.367c0,1.956,1.601,3.557,3.557,3.557h38.622
				L192.046,201.637z"/>
			<g>
				<path style="fill:#C6FF00;" d="M158.515,180.491c0-1.201-0.973-2.174-2.174-2.174s-2.174,0.973-2.174,2.174
					c0,1.201,0.973,2.174,2.174,2.174S158.515,181.691,158.515,180.491z"/>
				<path style="fill:#C6FF00;" d="M171.361,180.491c0-1.201-0.973-2.174-2.174-2.174c-1.201,0-2.174,0.973-2.174,2.174
					c0,1.201,0.973,2.174,2.174,2.174C170.388,182.665,171.361,181.691,171.361,180.491z"/>
				<path style="fill:#C6FF00;" d="M184.207,180.491c0-1.201-0.973-2.174-2.174-2.174c-1.201,0-2.174,0.973-2.174,2.174
					c0,1.201,0.973,2.174,2.174,2.174C183.234,182.665,184.207,181.691,184.207,180.491z"/>
			</g>
		</g>
	</g>
</g>
</svg>
